{
	"asset":{
		"generator":"Khronos glTF Blender I/O v4.1.63",
		"version":"2.0"
	},
	"scene":0,
	"scenes":[
		{
			"name":"Scene",
			"nodes":[
				1
			]
		}
	],
	"nodes":[
		{
			"mesh":0,
			"name":"light_lightning_0",
			"scale":[
				0.19999998807907104,
				0.20000000298023224,
				0.20000000298023224
			],
			"translation":[
				0.35999998450279236,
				0,
				0.1899999976158142
			]
		},
		{
			"children":[
				0
			],
			"name":"light",
			"rotation":[
				-0.7071069478988647,
				0,
				0,
				0.7071066498756409
			],
			"scale":[
				100,
				100.00000762939453,
				100.00000762939453
			],
			"translation":[
				-35.00000762939453,
				-18.851659774780273,
				0
			]
		}
	],
	"animations":[
		{
			"channels":[
				{
					"sampler":0,
					"target":{
						"node":1,
						"path":"rotation"
					}
				}
			],
			"name":"light|lightning",
			"samplers":[
				{
					"input":4,
					"interpolation":"LINEAR",
					"output":5
				}
			]
		}
	],
	"materials":[
		{
			"doubleSided":true,
			"name":"lightning",
			"pbrMetallicRoughness":{
				"baseColorFactor":[
					1,
					0.5886579751968384,
					0,
					1
				],
				"metallicFactor":0,
				"roughnessFactor":0.8583208918571472
			}
		}
	],
	"meshes":[
		{
			"name":"light_lightning_0",
			"primitives":[
				{
					"attributes":{
						"POSITION":0,
						"NORMAL":1,
						"TEXCOORD_0":2
					},
					"indices":3,
					"material":0
				}
			]
		}
	],
	"accessors":[
		{
			"bufferView":0,
			"componentType":5126,
			"count":36,
			"max":[
				0.03773066774010658,
				0.010000002570450306,
				0.06591248512268066
			],
			"min":[
				-0.03161277994513512,
				-0.010000002570450306,
				-0.06887935101985931
			],
			"type":"VEC3"
		},
		{
			"bufferView":1,
			"componentType":5126,
			"count":36,
			"type":"VEC3"
		},
		{
			"bufferView":2,
			"componentType":5126,
			"count":36,
			"type":"VEC2"
		},
		{
			"bufferView":3,
			"componentType":5123,
			"count":60,
			"type":"SCALAR"
		},
		{
			"bufferView":4,
			"componentType":5126,
			"count":60,
			"max":[
				2.4583333333333335
			],
			"min":[
				0
			],
			"type":"SCALAR"
		},
		{
			"bufferView":5,
			"componentType":5126,
			"count":60,
			"type":"VEC4"
		}
	],
	"bufferViews":[
		{
			"buffer":0,
			"byteLength":432,
			"byteOffset":0,
			"target":34962
		},
		{
			"buffer":0,
			"byteLength":432,
			"byteOffset":432,
			"target":34962
		},
		{
			"buffer":0,
			"byteLength":288,
			"byteOffset":864,
			"target":34962
		},
		{
			"buffer":0,
			"byteLength":120,
			"byteOffset":1152,
			"target":34963
		},
		{
			"buffer":0,
			"byteLength":240,
			"byteOffset":1272
		},
		{
			"buffer":0,
			"byteLength":960,
			"byteOffset":1512
		}
	],
	"buffers":[
		{
			"byteLength":2472,
			"uri":"item_velocidad.bin"
		}
	]
}
