{
  "accessors": [
    {
      "bufferView": 2,
      "componentType": 5126,
      "count": 1229,
      "max": [
        312.256103515625,
        418.9200439453125,
        604.5684814453125
      ],
      "min": [
        -239.969970703125,
        -255.5897674560547,
        -144.76832580566406
      ],
      "type": "VEC3"
    },
    {
      "bufferView": 2,
      "byteOffset": 14748,
      "componentType": 5126,
      "count": 1229,
      "max": [
        0.9995386600494385,
        0.9992966651916504,
        0.9996474981307983
      ],
      "min": [
        -0.9998316168785095,
        -0.9977875351905823,
        -0.9973123669624329
      ],
      "type": "VEC3"
    },
    {
      "bufferView": 3,
      "componentType": 5126,
      "count": 1229,
      "max": [
        0.9886388778686523,
        0.9980632066726685,
        0.9993665218353271,
        1.0
      ],
      "min": [
        -0.999062180519104,
        -0.999209463596344,
        -0.9984013438224792,
        1.0
      ],
      "type": "VEC4"
    },
    {
      "bufferView": 1,
      "componentType": 5126,
      "count": 1229,
      "max": [
        0.996317982673645,
        0.942825973033905
      ],
      "min": [
        0.01024600025266409,
        0.0032339999452233315
      ],
      "type": "VEC2"
    },
    {
      "bufferView": 0,
      "componentType": 5125,
      "count": 6408,
      "type": "SCALAR"
    }
  ],
  "asset": {
    "extras": {
      "author": "BenDelamore (https://sketchfab.com/BenDelamore)",
      "license": "CC-BY-4.0 (http://creativecommons.org/licenses/by/4.0/)",
      "source": "https://sketchfab.com/3d-models/a-rock-c49139dbab5e4c498c225b56cca30466",
      "title": "A Rock"
    },
    "generator": "Sketchfab-12.67.0",
    "version": "2.0"
  },
  "bufferViews": [
    {
      "buffer": 0,
      "byteLength": 25632,
      "name": "floatBufferViews",
      "target": 34963
    },
    {
      "buffer": 0,
      "byteLength": 9832,
      "byteOffset": 25632,
      "byteStride": 8,
      "name": "floatBufferViews",
      "target": 34962
    },
    {
      "buffer": 0,
      "byteLength": 29496,
      "byteOffset": 35464,
      "byteStride": 12,
      "name": "floatBufferViews",
      "target": 34962
    },
    {
      "buffer": 0,
      "byteLength": 19664,
      "byteOffset": 64960,
      "byteStride": 16,
      "name": "floatBufferViews",
      "target": 34962
    }
  ],
  "buffers": [
    {
      "byteLength": 84624,
      "uri": "scene.bin"
    }
  ],
  "images": [
    {
      "uri": "textures/material_0_baseColor.png"
    },
    {
      "uri": "textures/material_0_metallicRoughness.png"
    },
    {
      "uri": "textures/material_0_normal.png"
    }
  ],
  "materials": [
    {
      "doubleSided": true,
      "name": "material_0",
      "normalTexture": {
        "index": 2
      },
      "occlusionTexture": {
        "index": 1
      },
      "pbrMetallicRoughness": {
        "baseColorTexture": {
          "index": 0
        },
        "metallicFactor": 0.0,
        "metallicRoughnessTexture": {
          "index": 1
        }
      }
    }
  ],
  "meshes": [
    {
      "name": "Object_0",
      "primitives": [
        {
          "attributes": {
            "NORMAL": 1,
            "POSITION": 0,
            "TANGENT": 2,
            "TEXCOORD_0": 3
          },
          "indices": 4,
          "material": 0,
          "mode": 4
        }
      ]
    }
  ],
  "nodes": [
    {
      "children": [
        1
      ],
      "matrix": [
        1.0,
        -2.832769343193999e-16,
        -6.290011496532519e-32,
        0.0,
        0.0,
        2.220446049250313e-16,
        -1.0,
        0.0,
        2.832769343193999e-16,
        1.0,
        2.220446049250313e-16,
        0.0,
        -6.394884621840902e-14,
        0.0,
        0.0,
        1.0
      ],
      "name": "Sketchfab_model"
    },
    {
      "children": [
        2
      ],
      "name": "d7b534d9f3a24c43981743a4ebe7bfb3.obj.cleaner.materialmerger.gles"
    },
    {
      "mesh": 0,
      "name": "Object_2"
    }
  ],
  "samplers": [
    {
      "magFilter": 9729,
      "minFilter": 9987,
      "wrapS": 10497,
      "wrapT": 10497
    }
  ],
  "scene": 0,
  "scenes": [
    {
      "name": "Sketchfab_Scene",
      "nodes": [
        0
      ]
    }
  ],
  "textures": [
    {
      "sampler": 0,
      "source": 0
    },
    {
      "sampler": 0,
      "source": 1
    },
    {
      "sampler": 0,
      "source": 2
    }
  ]
}
