{
	"asset":{
		"generator":"Khronos glTF Blender I/O v4.1.63",
		"version":"2.0"
	},
	"scene":0,
	"scenes":[
		{
			"name":"Scene",
			"nodes":[
				1
			]
		}
	],
	"nodes":[
		{
			"mesh":0,
			"name":"heart_hearth_0",
			"scale":[
				0.15000000596046448,
				0.15000000596046448,
				0.15000000596046448
			],
			"translation":[
				0,
				0,
				0.18999998271465302
			]
		},
		{
			"children":[
				0
			],
			"name":"heart",
			"rotation":[
				-0.7071069478988647,
				0,
				0,
				0.7071066498756409
			],
			"scale":[
				100,
				100.00000762939453,
				100.00000762939453
			],
			"translation":[
				0,
				-18.097272872924805,
				0
			]
		}
	],
	"animations":[
		{
			"channels":[
				{
					"sampler":0,
					"target":{
						"node":1,
						"path":"rotation"
					}
				}
			],
			"name":"heart|lightning",
			"samplers":[
				{
					"input":4,
					"interpolation":"LINEAR",
					"output":5
				}
			]
		}
	],
	"materials":[
		{
			"doubleSided":true,
			"name":"hearth",
			"pbrMetallicRoughness":{
				"baseColorFactor":[
					0.800000011920929,
					0.0015575899742543697,
					0,
					1
				],
				"metallicFactor":0,
				"roughnessFactor":0.9617198705673218
			}
		}
	],
	"meshes":[
		{
			"name":"heart_hearth_0",
			"primitives":[
				{
					"attributes":{
						"POSITION":0,
						"NORMAL":1,
						"TEXCOORD_0":2
					},
					"indices":3,
					"material":0
				}
			]
		}
	],
	"accessors":[
		{
			"bufferView":0,
			"componentType":5126,
			"count":738,
			"max":[
				0.07224666327238083,
				0.010000001639127731,
				0.05169983208179474
			],
			"min":[
				-0.07223159074783325,
				-0.010000002570450306,
				-0.0697544515132904
			],
			"type":"VEC3"
		},
		{
			"bufferView":1,
			"componentType":5126,
			"count":738,
			"type":"VEC3"
		},
		{
			"bufferView":2,
			"componentType":5126,
			"count":738,
			"type":"VEC2"
		},
		{
			"bufferView":3,
			"componentType":5123,
			"count":1428,
			"type":"SCALAR"
		},
		{
			"bufferView":4,
			"componentType":5126,
			"count":60,
			"max":[
				2.4583333333333335
			],
			"min":[
				0
			],
			"type":"SCALAR"
		},
		{
			"bufferView":5,
			"componentType":5126,
			"count":60,
			"type":"VEC4"
		}
	],
	"bufferViews":[
		{
			"buffer":0,
			"byteLength":8856,
			"byteOffset":0,
			"target":34962
		},
		{
			"buffer":0,
			"byteLength":8856,
			"byteOffset":8856,
			"target":34962
		},
		{
			"buffer":0,
			"byteLength":5904,
			"byteOffset":17712,
			"target":34962
		},
		{
			"buffer":0,
			"byteLength":2856,
			"byteOffset":23616,
			"target":34963
		},
		{
			"buffer":0,
			"byteLength":240,
			"byteOffset":26472
		},
		{
			"buffer":0,
			"byteLength":960,
			"byteOffset":26712
		}
	],
	"buffers":[
		{
			"byteLength":27672,
			"uri":"item_vida.bin"
		}
	]
}
